Coordinates
version=1
nRows=13
nColumns=36
inDegrees=yes

Units are S.I. units (second, meters, Newtons, ...)
If the header above contains a line with 'inDegrees', this indicates whether rotational values are in degrees (yes) or radians (no).

endheader
time	pelvis_tilt	pelvis_list	pelvis_rotation	pelvis_tx	pelvis_ty	pelvis_tz	hip_flexion_r	hip_adduction_r	hip_rotation_r	knee_angle_r	knee_angle_r_beta	ankle_angle_r	subtalar_angle_r	mtp_angle_r	hip_flexion_l	hip_adduction_l	hip_rotation_l	knee_angle_l	knee_angle_l_beta	ankle_angle_l	subtalar_angle_l	mtp_angle_l	lumbar_extension	lumbar_bending	lumbar_rotation	arm_flex_r	arm_add_r	arm_rot_r	elbow_flex_r	pro_sup_r	arm_flex_l	arm_add_l	arm_rot_l	elbow_flex_l	pro_sup_l
      0.00000000	      4.28868773	      4.07537111	     12.65112394	     -0.17285056	      0.86593991	     -0.19914955	     24.73594240	     -6.19593195	     -0.79993376	     12.29148850	      0.21452694	      5.83052392	     -7.53717489	     -4.87285075	    -22.85908671	     -0.76902677	     -2.26958925	     20.78284186	      0.36272902	     12.48358960	     10.87444043	     -4.87285075	    -12.64778321	     -2.20158125	    -16.77274160	     -6.38508800	     -3.75291534	     -2.01603366	      6.56692796	     82.06422429	     20.32241528	     -8.79409495	      2.24170945	     54.04097710	     97.59899333
      0.01000000	      4.19166057	      3.67248170	     12.70042366	     -0.15533173	      0.86502391	     -0.19752220	     24.72818285	     -5.37165245	     -0.34242046	     13.52289262	      0.23601900	      2.78577523	    -10.45438660	     -5.02656725	    -22.45981001	     -1.47944418	     -2.34047597	     22.92989419	      0.40020215	     10.22874177	      9.03586817	     -5.02656725	    -12.20987539	     -1.79126285	    -16.59666820	     -6.77206013	     -3.78266712	     -1.53541808	      6.33241254	     81.87210249	     19.71648950	     -8.48957628	      2.13870738	     53.82804060	     98.15583256
      0.02000000	      4.15384668	      3.21153674	     12.74535025	     -0.13775609	      0.86422224	     -0.19594927	     24.82581693	     -4.58743659	     -0.64842114	     15.14131134	      0.26426574	      1.05874236	    -11.33742981	     -5.06359117	    -22.01872774	     -2.34178939	     -2.77310048	     25.21110189	      0.44001674	      8.00350655	      7.96261176	     -5.06359117	    -11.82276582	     -1.29744449	    -16.39664466	     -7.13337925	     -3.81052473	     -1.49819527	      6.12635732	     81.79503278	     19.08831507	     -8.18153496	      2.05861554	     53.69492123	     98.27831888
      0.03000000	      3.94272206	      2.83677843	     12.61240131	     -0.12044731	      0.86356792	     -0.19414607	     25.01675709	     -3.67293566	      0.42290304	     16.61655278	      0.29001356	     -1.84136475	    -14.75123337	     -5.17622671	    -21.37886049	     -2.75239331	     -2.35615697	     27.39842552	      0.47819274	      4.80944367	      4.90495233	     -5.17622671	    -11.30198608	     -0.95233845	    -16.13733594	     -7.35483719	     -3.84164226	     -1.37099721	      5.94231882	     81.57645060	     18.31779198	     -7.83792181	      1.64327041	     53.49530470	     98.69210582
      0.04000000	      4.14090266	      2.23995594	     12.45125987	     -0.10314955	      0.86362934	     -0.19233014	     24.89715018	     -2.58410038	      0.38296411	     18.43327787	      0.32172139	     -2.65309483	    -15.66741278	     -5.21086116	    -20.83774604	     -3.72818182	     -3.03290518	     30.06783910	      0.52478279	      2.01554704	      3.65055738	     -5.21086116	    -11.24602934	     -0.25602451	    -15.67726183	     -7.50561766	     -3.92957004	     -1.34574569	      5.82188920	     81.50673623	     17.66207395	     -7.47017663	      1.48912342	     53.31583881	     98.81196851
      0.05000000	      4.19169563	      1.77183752	     12.11437906	     -0.08632458	      0.86403248	     -0.19042457	     24.86589285	     -1.49327842	      1.20510590	     20.20342523	      0.35261629	     -3.94403651	    -17.86544307	     -5.30866588	    -20.00839778	     -4.19511074	     -2.99098836	     32.78734780	      0.57224717	     -2.29966840	     -0.05992439	     -5.30866588	    -11.12177732	      0.26917470	    -15.14234564	     -7.49120595	     -4.01199025	     -1.26167133	      5.75174140	     81.34218054	     16.93001344	     -7.03324642	      0.96922539	     52.98681760	     99.20193198
      0.06000000	      4.48414059	      1.15473997	     11.72990119	     -0.06980937	      0.86502861	     -0.18847057	     24.52164969	     -0.25621454	      1.56775153	     21.91498539	      0.38248865	     -4.14169839	    -19.01365559	     -5.40609343	    -19.12625592	     -4.97868981	     -3.48865639	     35.88832749	      0.62636948	     -6.44440163	     -2.98292676	     -5.40609343	    -11.32145831	      1.00498571	    -14.46077341	     -7.33696720	     -4.12922321	     -1.15755510	      5.72197534	     81.21772944	     16.27092028	     -6.58426392	      0.54544942	     52.59524471	     99.60661614
      0.07000000	      4.89379442	      0.37853720	     11.32294318	     -0.05368615	      0.86646409	     -0.18646549	     23.92894557	      1.12200261	      1.62906787	     23.37432058	      0.40795885	     -3.61022629	    -19.53373421	     -5.43421734	    -18.07206695	     -6.08747131	     -4.34813511	     39.37510222	      0.68722518	     -9.68435811	     -4.49886750	     -5.43421734	    -11.72118879	      1.92320718	    -13.65785060	     -7.05530129	     -4.28930678	     -1.10911060	      5.73435774	     81.19840529	     15.65535911	     -6.13725805	      0.26868341	     52.16970040	     99.68623855
      0.08000000	      5.13064871	     -0.15841153	     10.85669032	     -0.03818479	      0.86817547	     -0.18465213	     23.35072031	      2.20097429	      1.94904822	     24.61619538	      0.42963366	     -3.05875963	    -19.83069767	     -5.50915747	    -16.71295338	     -6.58295587	     -4.56234479	     42.76676710	      0.74642090	    -14.76202735	     -9.10088384	     -5.50915747	    -12.02032973	      2.55780481	    -12.84718276	     -6.63683013	     -4.44793068	     -0.94824622	      5.81934859	     81.18542592	     15.10707996	     -5.60413211	     -0.27852631	     51.33901866	     99.97986918
      0.09000000	      5.47178846	     -0.80208311	     10.46029903	     -0.02315567	      0.87024158	     -0.18290979	     22.47641894	      3.31727215	      1.83880623	     25.44327525	      0.44406893	     -2.09747329	    -19.74726353	     -5.58400366	    -15.24317164	     -7.32358954	     -4.90108332	     46.34933367	      0.80894848	    -18.25264348	    -12.06532589	     -5.58400366	    -12.50830409	      3.31754546	    -12.01831513	     -6.09601548	     -4.63131000	     -0.73578272	      5.92979502	     81.21618157	     14.61214815	     -5.13111471	     -0.60630456	     50.49128605	    100.28997137
      0.10000000	      5.77303849	     -1.34350896	     10.14397210	     -0.00856945	      0.87255163	     -0.18130291	     21.45483568	      4.24402323	      1.60149559	     25.94511203	      0.45282763	     -0.96089699	    -19.34180718	     -5.66969544	    -13.58648931	     -7.92702229	     -5.04675841	     49.91573928	      0.87119400	    -20.80148456	    -14.66690372	     -5.66969544	    -12.99428949	      3.93919175	    -11.24995624	     -5.48201736	     -4.80549738	     -0.43537231	      6.09466555	     81.30028893	     14.16423423	     -4.70348872	     -0.85112499	     49.43580403	    100.62911627
      0.11000000	      6.03648126	     -1.86718439	      9.90593544	      0.00560222	      0.87508106	     -0.17972019	     20.24542401	      5.14106243	      1.41552402	     25.95937650	      0.45307659	     -0.08905471	    -19.19549780	     -5.69638637	    -11.73730723	     -8.53038611	     -5.08008164	     53.47964856	      0.93339595	    -21.49031637	    -15.93637365	     -5.69638637	    -13.48682861	      4.52318671	    -10.56558891	     -4.76943907	     -4.97804474	     -0.26808753	      6.36709304	     81.36695800	     13.68906554	     -4.34270053	     -1.06497152	     48.41186012	    100.64625696
      0.12000000	      6.45136663	     -1.83737452	      9.59279931	      0.01913549	      0.87820447	     -0.17807729	     18.78092346	      5.49208471	      1.44826068	     25.96237530	      0.45312893	      0.37739910	    -19.09158163	     -5.70455589	    -10.11895488	     -8.38986551	     -4.89530774	     56.59481311	      0.98776583	    -21.61538862	    -16.61787948	     -5.70455589	    -14.38200171	      4.44693879	     -9.88497275	     -3.85911772	     -5.01562715	     -0.14814777	      6.72362328	     81.42200721	     13.26379597	     -4.16269082	     -1.20047894	     47.65371290	    100.60032460
